<?xml version="1.0" encoding="utf-8"?>
<!-- Generator: Adobe Illustrator 21.0.0, SVG Export Plug-In . SVG Version: 6.00 Build 0)  -->
<svg version="1.1" id="Layer_1" xmlns="http://www.w3.org/2000/svg" xmlns:xlink="http://www.w3.org/1999/xlink" x="0px" y="0px"
	 viewBox="0 0 151 144.5" style="enable-background:new 0 0 151 144.5;" xml:space="preserve">
<style type="text/css">
	.st0{fill:#FDD000;}
	.st1{fill:#C78311;}
	.st2{fill:none;stroke:#000000;stroke-width:8;stroke-miterlimit:10;}
</style>
<g>
	<g>
		<path class="st0" d="M71.8,126.1c0-0.4-0.1-0.7-0.1-1.1c-0.4,1.5-0.8,3-1.2,4.5c2.1-3.8,3.5-6.8,3.4-11.3
			c-0.1-3.8,1.2-6.7,2.7-10.2c2.9-6.7,6.3-13.1,12.3-17.6c6.3-4.7,14-8,21.7-9.4c6.6-1.2,16.6-1.4,22.3,2.7
			c-1.1-1.1-2.2-2.2-3.2-3.2c-0.3-2.8-0.5-3-0.8-0.6c-0.2,1.1-0.5,2.1-0.8,3.2c-0.4,1.3-0.8,2.7-1.4,4c-1.4,3.3-3.4,6.5-5.6,9.2
			c-4.6,5.5-10.3,10.6-15.8,15.1c-5.5,4.4-11.6,7.8-18.6,9.2c-3.8,0.8-7.7,0.9-11.5,0.9c-2.7,0-7.4,0.5-9.4-1
			c1.1,1.1,2.2,2.2,3.2,3.2c0-0.1,0-0.2-0.1-0.3c0,1.6,0,3.2,0,4.8c0.9-2.6,7.3-6.7,9.9-8.7c4.3-3.3,8.8-6.5,12.7-10.4
			c3.5-3.5,5.9-7.8,9.2-11.5c3.4-3.7,9.1-4.2,13.9-5c2.3-0.4,4.7-0.5,7-0.8c2.1-0.3,1.9,1.1,0.5-1.3c-0.9-1.6-1-1.7-1.3-1.7
			c-1.2,0.1-4.3,2.2-5.5,2.7c-3,1.2-6.1,2.5-9,3.9C94.7,101,83.2,107.1,71.7,113c4.1,4.1,8.2,8.2,12.3,12.3
			c4.1-5.8,10.6-9.4,16.6-12.9c7.2-4.1,14.2-8.2,20.3-13.9c6.7-6.3-0.3-17.2-8.8-15c-7.1,1.8-13.8,4.8-19.8,9.1
			c-3.9,2.8-5.9,7.8-3.2,12.3c2.3,3.9,8.4,6.1,12.3,3.2c4.8-3.5,9.7-5.9,15.5-7.3c-2.9-5-5.8-10-8.8-15C102,91.5,94.3,95,87.2,99.4
			c-7.4,4.5-13.8,9.8-18.8,16.9c-5.6,7.9,5,16,12.3,12.3c14.5-7.4,28.8-15.2,43.8-21.5c7.3-3,13.7-8.3,14.4-16.7
			c0.6-7.8-4.4-14.4-12.1-16.1c-7.3-1.6-16.1,0.5-23.2,2.2c-7.7,1.8-13.6,5.6-18.4,12c-3.9,5.1-7.7,9.6-12.9,13.6
			c-5.3,4.2-11,8-15.6,13.1c-5.8,6.4-8.1,16,0.6,21.4c6,3.8,15.4,3.2,22.3,2.9c16-0.7,29-7,40.9-17.4c11.1-9.7,21.2-20.4,25.1-35
			c2-7.5,2.6-15.5-5.1-19.7c-6.7-3.7-15.4-4.9-22.9-4.9c-16.6,0.1-35.9,7.5-46.8,20.3c-5.4,6.4-8.9,13.7-12.1,21.4
			c-1.6,3.9-3.1,7.6-3.1,11.9c0,0.8,0.3,2.1,0.1,2.9c0.2-1.1-0.1-0.2-0.4,0.5c-1,2.3-1.9,4.1-1.7,6.7c0.4,4.8,3.9,9,9,9
			C67.3,135.1,72.2,131,71.8,126.1L71.8,126.1z"/>
	</g>
</g>
<g>
	<g>
		<path class="st0" d="M58.1,125.1c2.6,0.5,5.1,3.4,7,5.1c2.2,1.8,4.5,3.6,5.9,6.1c0.2-0.7,0.4-1.4,0.5-2.1
			c-1.2,0.8-5.2-3.8-5.9-4.6c-1.6-1.8-3.2-3.5-5.1-5c-1.3-1-3.1,1.3-1.8,2.4c1.9,1.6,3.2,3.3,4.2,5.5c0.4-0.8,0.9-1.5,1.3-2.3
			c-2.1,0-4-0.3-6-0.7c-0.1,1-0.3,2-0.4,2.9c2.3,0.1,3.5,2.9,5.2,4c1.4,0.9,2.5,1,4.1,0.8c1.6-0.3,1.2-2.4,0-2.9
			c-2.1-0.8-4.2-1.5-6.3-2.3c0,1,0,1.9,0,2.9c2.3-0.6,4.5-0.6,6.7,0.2c0.1-1,0.3-2,0.4-2.9c-2.3-0.1-5.2,0.1-7.3-0.5
			c0.3,0.3,0.7,0.7,1,1c-0.3-1.3,0.1-3.2,0.1-4.6c-1,0.1-2,0.3-2.9,0.4c0.4,1.8,0.6,3.5,0.6,5.3c1,0,2,0,3,0
			c-0.2-2.5-0.6-4.9-1.4-7.3c-0.6-1.8-3.5-1.1-2.9,0.8c0.7,2.1,1.1,4.3,1.3,6.5c0.2,1.9,3,2,3,0c0.1-2.1-0.2-4.1-0.7-6.1
			c-0.4-1.7-2.9-1.2-2.9,0.4c-0.1,1.8-1,5.2,0.8,6.3c0.8,0.5,2.2,0.3,3.1,0.4c1.7,0.1,3.5,0.2,5.2,0.3c1.8,0.1,1.9-2.4,0.4-2.9
			c-2.8-0.9-5.5-1-8.3-0.2c-1.5,0.4-1.3,2.4,0,2.9c2.1,0.8,4.2,1.5,6.3,2.3c0-1,0-1.9,0-2.9c-2.1,0.4-3.5-2.5-4.9-3.7
			c-1.1-0.9-2.2-1.2-3.5-1.2c-1.7-0.1-2,2.5-0.4,2.9c2.3,0.6,4.5,0.8,6.8,0.8c1.2,0,1.8-1.3,1.3-2.3c-1.1-2.4-2.7-4.4-4.7-6.1
			c-0.6,0.8-1.2,1.6-1.8,2.4c2.9,2.2,4.9,5.5,7.8,7.7c1.5,1.2,4.4,3.2,6.3,1.9c0.7-0.5,1-1.3,0.5-2.1c-1.7-3-4.5-5.2-7.2-7.4
			c-2.1-1.8-4.8-4.6-7.6-5.2C57,121.8,56.2,124.7,58.1,125.1L58.1,125.1z"/>
	</g>
</g>
<g>
	<g>
		<path class="st0" d="M127.2,72c4.1,0.4,7.9,3.2,11.4,5.1c1.5,0.8,3.1-1.1,1.8-2.4c-1.4-1.3-2.4-2.7-3.4-4.4
			c-0.4,0.8-0.9,1.5-1.3,2.3c2.5,0.3,5,0.8,7.4,1.7c1.8,0.6,2.6-2.3,0.8-2.9c-1-0.3-1.9-0.8-2.6-1.5c-0.6,0.8-1.2,1.6-1.8,2.4
			c1.2,0.8,1.9,1.7,2.5,3c0.7-0.6,1.5-1.1,2.2-1.7c-1.3-0.9-2.1-2-2.7-3.4c-0.9,0.5-1.7,1-2.6,1.5c1.4,2.1,2.3,4.3,2.9,6.8
			c0.8-0.5,1.7-1,2.5-1.5c-1.5-1.6-2.6-3.4-3.5-5.4c-0.7-1.8-3.2-1.1-2.9,0.8c0.5,2.8,1,5.5,1.4,8.3c0.3,1.8,2.8,1.1,2.9-0.4
			c0.4-3.1-0.3-5.9-1.2-8.9c-0.9,0.4-1.8,0.8-2.7,1.2c1.9,3.8,2.3,7.8,2.7,12c1-0.1,2-0.3,2.9-0.4c-1.5-4-2.4-8-2.7-12.2
			c-0.9,0.3-1.9,0.5-2.8,0.8c1.5,2.9,1.7,6.7,2.2,9.9c0.3,1.6,3.2,1.3,2.9-0.4c-0.6-4.6-1.6-9-3-13.4c-0.5-1.6-2.9-1.3-2.9,0.4
			c-0.2,4.3,1.6,8.2,4,11.6c1.1,1.6,3.7,0.1,2.6-1.5c-2.1-3-3.8-6.3-3.6-10.1c-1,0.1-2,0.3-2.9,0.4c1.3,4.1,2.3,8.3,2.9,12.6
			c1-0.1,2-0.3,2.9-0.4c-0.6-3.5-0.9-7.4-2.5-10.6c-0.7-1.3-2.9-0.7-2.8,0.8c0.2,4.5,1.1,8.8,2.8,13c0.6,1.4,3.1,1.4,2.9-0.4
			c-0.4-4.7-0.9-9.2-3.1-13.5c-0.8-1.5-3.2-0.5-2.7,1.2c0.8,2.7,1.5,5.2,1.1,8.1c1-0.1,2-0.3,2.9-0.4c-0.5-2.8-1-5.5-1.4-8.3
			c-1,0.3-1.9,0.5-2.9,0.8c1,2.5,2.4,4.7,4.2,6.8c1.1,1.1,2.8-0.1,2.5-1.5c-0.7-2.7-1.7-5.1-3.2-7.5c-1.1-1.6-3.4-0.2-2.6,1.5
			c0.9,1.9,2.1,3.2,3.8,4.4c1,0.7,2.7-0.5,2.2-1.7c-0.8-2.1-2-3.6-3.8-4.8c-1.4-1-3.1,1.3-1.8,2.4c1.2,1,2.4,1.7,4,2.2
			c0.3-1,0.5-1.9,0.8-2.9c-2.7-0.9-5.4-1.5-8.2-1.8c-1.2-0.1-1.8,1.4-1.3,2.3c1,1.9,2.3,3.5,3.8,5c0.6-0.8,1.2-1.6,1.8-2.4
			c-4.1-2.2-8.2-5.1-13-5.5C125.2,68.8,125.3,71.8,127.2,72L127.2,72z"/>
	</g>
</g>
<g>
	<g>
		<path class="st1" d="M93.8,60c7.3,0.7,14.3,0.5,21.7-0.1c7.4-0.5,11.8,0.9,17.8,5.2c8.5,6.1,17.8-7,10.9-14.1
			c-2.7-2.8-4.5-5.8-6.1-9.4c-1.9-4.5-8.5-5.5-12.3-3.2c-4.6,2.7-5.2,7.8-3.2,12.3c2.1,4.9,5.2,9.2,8.9,13.1
			c3.6-4.7,7.3-9.4,10.9-14.1c-7.1-5.1-14.6-8-23.4-7.8c-8.5,0.1-16.6,1-25.1,0.2c-4.8-0.4-9,4.5-9,9C84.8,56.2,89,59.5,93.8,60
			L93.8,60z"/>
	</g>
</g>
<g>
	<g>
		<path class="st1" d="M28.7,108.2c1.7,3.8,3.1,8.1,5.5,11.5c0.6,0.8,1.2,1.5,1.9,2.2c0.4,0.4,0.9,0.7,1.4,1.1c1.1,1,1.2,0.9,0.3,0
			c-0.6-1-0.8-1-0.5,0c0.1,0.5,0.2,0.9,0.2,1.4c0.2,1.2,0.4,2.4,0.6,3.6c3.7-3.7,7.4-7.4,11.1-11.1c1.5,1.2,1.5,1.1,0-0.3
			c-0.7-0.7-1.5-1.5-2.2-2.2c-1.5-1.5-2.9-2.9-4.4-4.4c-8.2-8.2-21,4.6-12.7,12.7c4,3.9,8.7,10.6,14.5,11.4
			c7.2,1.1,12.2-3.9,11.1-11.1c-0.3-2.1-0.5-4.3-1.1-6.4c-1-3.3-2.7-4.9-5-7.3c-2.4-2.5-3.6-7-5.1-10.4c-2-4.4-8.5-5.5-12.3-3.2
			C27.3,98.6,26.7,103.7,28.7,108.2L28.7,108.2z"/>
	</g>
</g>
<g>
	<g>
		<path class="st1" d="M62.8,57.1c1.3,1.2,2.8,2.4,4,3.6c-1.1-1.4-2.2-2.8-3.3-4.3c0.1,0.1,0.1,0.2,0.2,0.3
			C63,51.4,62.3,46,61.6,40.6c0,0.1,0,0.2-0.1,0.4c3.2-4.2,6.4-8.4,9.7-12.6c-0.1,0.1-0.2,0.1-0.3,0.2c-3.9,2.4-6.8,5.8-8.6,10
			c-1.8,4.2-2.5,9.2-1.1,13.7c1.1,3.5,2.9,6.6,5.4,9.3c3.3,3.6,9.9,6.5,14.8,6.2c6.5-0.4,12.1-1.8,17.8-5c4.6-2.6,8.3-7.5,9.7-12.6
			c1.4-5,0.8-11.7-2.1-16.2c-2.9-4.5-7.2-8.4-12.6-9.7C88.7,23.1,83,23.6,78,26.5c-0.7,0.4-1.3,0.7-2,1c1.7-0.7,3.3-1.4,5-2.1
			c-1.2,0.5-2.4,0.8-3.6,1c1.9-0.3,3.7-0.5,5.6-0.8c-0.5,0.1-1,0.1-1.5,0.1c3.5,13,7.1,26.1,10.6,39.1c4.7-2.8,8.4-7.4,9.9-12.7
			c1.5-5.3,0.8-12-2.1-16.7c-2.1-3.3-4.6-5.5-7.4-8c-4.2-3.7-9.1-6.2-14.8-6.2c-5.2,0-11.3,2.3-14.8,6.2c-3.7,4-6.4,9.3-6.2,14.8
			C56.9,47.6,58.6,53.4,62.8,57.1L62.8,57.1z"/>
	</g>
</g>
<g>
	<g>
		<path class="st1" d="M49.7,42.9c3-4-1.7,1.4-2.4,2.1c-1.8,1.5-1.7,1.5,0.3-0.1c-1.9,1.4-3.8,2.8-5.6,4.3
			c-4.1,3.5-7.1,7.9-9.6,12.8c-4.4,8.6-8.3,17.7-13.2,26c2.5-2.5,5-5,7.5-7.5c-0.2,0.2-0.5,0.4-0.7,0.6c3.5-1,7.1-1.9,10.6-2.9
			c-0.3,0-0.7-0.1-1-0.1c4.9,2.1,9.9,4.1,14.8,6.2c0.6,0.8,1.2,1.7,1.7,2.5c-0.4-0.8-0.9-1.7-1.3-2.5c-0.7-1.4-1.3-2.8-2-4.3
			c0.8,1.9,0.6,1.5,0-0.2c-0.5-1.4-1-2.9-1.5-4.3c-0.4-1.3-0.7-2.6-1.1-3.9c-1.2-3.6-0.4,2.2,0-0.1c0-0.6,0-1.2,0-1.7
			c0.1-1.6,0-1.2-0.2,1.3c-0.3-0.6,0.6-2.8,0.8-3.4c0.7-2.7,1.6-5.3,2.2-7.9c0.9-3.7-1.3,1.9-0.1-0.1c0.2-0.5,0.5-0.9,0.7-1.4
			c0.8-1.3,0.4-1-1.1,1.1c-0.1,0,2-2,2.1-2.2c3.2-3.3-2.2,1.3,0,0c2.3-1.3,4.5-2.9,6.8-4.3c1.9-1.1,4.6-3.2,6.7-3.5
			c-0.6,0.3-1.3,0.5-1.9,0.8c0.8-0.3,1.6-0.6,2.4-0.9c1.4-0.5,2.7-0.8,4.1-1.2c2.2-0.6,1.5-0.6-0.3-0.1c1.3-0.3,3-0.3,4.4-0.3
			c1.5,0,3,0.1,4.4,0.1c4,0-1.8-0.6,0.6,0c2.5,0.7,5.1,1.1,7.7,1.9c0,0,5,1.7,2.2,0.7c-2.8-1,1.5,0.7,2.1,1c5,2.5,9.7,5.5,14.2,8.8
			c8.9,6.5,23.8,1.8,28.7-7.5c5.8-10.9,2-21.8-7.5-28.7C110.5,13.2,93.4,6.1,75.3,5.4c-19.2-0.7-37.4,8.1-52.1,19.8
			c-14.8,11.8-21,36-18.1,54.1c1.4,9,5.5,17.8,9.5,25.9c3.1,6.4,8.3,12,15.4,13.9c9.9,2.7,20-1.7,25.5-10.1c5.2-8,8.9-17.5,13.2-26
			c0.8-1.6,3.3-5.2,0.6-2.1c0.6-0.6,2.9-2.9-0.4,0.1c1.7-1.5,3.8-2.8,5.6-4.3c4.6-3.7,8.1-8.1,11.6-12.8c6.6-8.8,1.7-23.8-7.5-28.7
			C67.4,29.5,56.8,33.4,49.7,42.9L49.7,42.9z"/>
	</g>
</g>
<g>
	<g>
		<path class="st1" d="M50.6,39.4c-0.2,1.1-0.5,2.1-0.9,3.1c0.7-1.7,1.4-3.3,2.1-5c-0.9,2-2.1,3.8-3.4,5.5c1.1-1.4,2.2-2.8,3.3-4.3
			c-0.8,1-1.6,2.1-2.5,3c1.4-1.1,2.8-2.2,4.3-3.3c-0.2,0.1-0.3,0.3-0.5,0.4c1.7-0.7,3.3-1.4,5-2.1c-0.2,0.1-0.4,0.1-0.6,0.2
			c3.7,0,7.4,0,11.2,0c-0.2,0-0.4-0.1-0.6-0.1C62.2,36,57,35.9,51.7,39c-4.4,2.5-8.5,7.5-9.7,12.6c-1.2,5.4-1,11.4,2.1,16.2
			c2.8,4.3,7.3,8.8,12.6,9.7c4.6,0.7,7.4,1.3,12,0c3.8-1.1,5.2-2.1,7.9-4.2c3.3-2.5,5.4-5.5,7.9-8.9c3-4,5.4-8.8,6.4-13.6
			c1.2-5.5,0.8-11.2-2.1-16.2c-2.5-4.4-7.5-8.5-12.6-9.7c-5.4-1.2-11.4-1-16.2,2.1C55.8,29.8,51.8,34.1,50.6,39.4L50.6,39.4z"/>
	</g>
</g>
<g>
	<g>
		<path class="st1" d="M16.1,44.1C14.2,52,13.6,60,14,68.1c0.9-0.4,1.7-0.7,2.6-1.1c-3.9-3.3-1.8-11.6-1.3-16
			c0.2-1.8-2.4-1.9-2.9-0.4C11.1,54.4,10,58.2,9,62c1,0.1,2,0.3,2.9,0.4c0-5.1,1.3-9.7,3.9-14.1c1-1.7-1.6-3.1-2.6-1.5
			c-2.3,3.6-7,8.5-5.9,13c0.3,1.4,2.6,1.4,2.9,0c0.2-0.9,0.4-1.7,0.5-2.6c0.3-1.9-2.6-2.7-2.9-0.8c-0.1,0.9-0.3,1.7-0.5,2.6
			c1,0,1.9,0,2.9,0c-0.6-2.8,4.2-8.5,5.6-10.7c-0.9-0.5-1.7-1-2.6-1.5c-2.9,4.8-4.4,9.9-4.3,15.6c0,1.7,2.5,2.1,2.9,0.4
			c1-3.8,2.1-7.6,3.3-11.3c-1-0.1-2-0.3-2.9-0.4c-0.6,5.4-2.7,14,2.2,18.1c0.9,0.8,2.6,0.3,2.6-1.1c-0.5-7.8,0.2-15.6,1.9-23.2
			C19.4,43,16.5,42.2,16.1,44.1L16.1,44.1z"/>
	</g>
</g>
<g>
	<g>
		<path class="st1" d="M48.2,48.7c0.3,4.8,1.1,9.4,2.4,14.1c0.3,1.2,2.1,1.6,2.7,0.4c2.2-4.5,9-19-1.1-18.9c-2.5,0-5.1,1.2-7.5,1.8
			c-3.3,0.9-6.7,1.7-10.1,2.3c-8.5,1.5-15.3-1.5-22.6-5.5c-0.3,0.9-0.5,1.9-0.8,2.8c2.3,0.2,4.2,0.9,6.1,2.2c1.6,1,3.1-1.5,1.5-2.6
			c-2.5-1.6-4.8-2.3-7.6-2.6c-1.5-0.2-2,2.1-0.8,2.8c7.7,4.2,15,7.4,24,6c5-0.8,9.9-2.2,14.7-3.5c2-0.5,2.1-0.9,3.9,0.5
			c2.1,1.5,1.7,1.8,1.2,4.1c-0.7,3.2-2,6.2-3.5,9.1c0.9,0.1,1.8,0.2,2.7,0.4c-1.3-4.4-2-8.7-2.3-13.3C51.1,46.7,48.1,46.7,48.2,48.7
			L48.2,48.7z"/>
	</g>
</g>
<g>
	<g>
		<path class="st0" d="M102.6,96.7c0.1,2.3-0.3,4-1.4,6c-0.5,1,0.1,2.3,1.3,2.3c5.5-0.1,9.1-4.1,13-7.6c1.4-1.3,2.7-2.8,4.3-3.9
			c2-1.4,2.7-2.2,5.2-1.2c2.3,1,4.2,3,6.6,4c1.8,0.7,2.6-2.2,0.8-2.9c-3.4-1.3-7.7-7.1-11.6-4.9c-6.2,3.5-10.4,13.2-18.3,13.4
			c0.4,0.8,0.9,1.5,1.3,2.3c1.4-2.5,2-4.7,1.8-7.5C105.5,94.7,102.5,94.7,102.6,96.7L102.6,96.7z"/>
	</g>
</g>
<ellipse class="st2" cx="75.5" cy="72.3" rx="71.5" ry="68.3"/>
<path class="st2" d="M55,126.5c0,3.9,0.3,7.7,0.9,11.4c6.2,1.7,12.8,2.6,19.6,2.6c39.5,0,71.5-30.6,71.5-68.3c0-0.9,0-1.8-0.1-2.7
	c-9-5.5-19.4-8.6-30.5-8.6C82.5,61,55,90.3,55,126.5z"/>
</svg>
